{"title":"Magic Mike","uid":12473239,"size":774765503,"categoryP":"games","categoryS":"pc","magnet":"?xt=urn:btih:42a26305d73ecda3e432419a28e34860d7b70930&amp;dn=Magic+Mike&amp;tr=udp%3A%2F%2Ftracker.openbittorrent.com%3A80&amp;tr=udp%3A%2F%2Fopen.demonii.com%3A1337&amp;tr=udp%3A%2F%2Ftracker.coppersurfer.tk%3A6969&amp;tr=udp%3A%2F%2Fexodus.desync.com%3A6969","seeders":0,"leechers":0,"uploader":null,"files":5,"time":1442946064,"description":"\n[Magic Mike XXL 2015 NEW HDTS XVID AC3 HQ Hive]\n\nVideo\nID: 0\nFormat: MPEG-4 Visual\nFormat profile: Advanced Simple@L5\nFormat settings, BVOP: 2\nFormat settings, QPel: Yes\nFormat settings, GMC: No warppoints\nFormat settings, Matrix: Default (H.263)\nMuxing mode: Packed bitstream\nCodec ID: XVID\nCodec ID/Hint: XviD\nDuration: 1h 48mn\nBit rate: 1 808 Kbps\nWidth: 720 pixels\nHeight: 368 pixels\nDisplay aspect ratio: 1.957\nFrame rate: 25.000 fps\nColor space: YUV\nChroma subsampling: 4:2:0\nBit depth: 8 bits\nScan type: Progressive\nCompression mode: Lossy\nBits/(Pixel*Frame): 0.273\nStream size: 1.38 GiB (87%)\nWriting library: XviD 1.2.1 (UTC 2008-12-04)\n\nAudio\nID: 1\nFormat: AC-3\nFormat/Info: Audio Coding 3\nMode extension: CM (complete main)\nFormat settings, Endianness: Big\nCodec ID: 2000\nDuration: 1h 48mn\nBit rate mode: Constant\nBit rate: 256 Kbps\nChannel(s): 2 channels\nChannel positions: Front: L R\nSampling rate: 48.0 KHz\nBit depth: 16 bits\nCompression mode: Lossy\nDelay relative to video: 50ms\nStream size: 200 MiB (12%)\nAlignment: Split accross interleaves\nInterleave, duration: 40 ms (1.00 video frame)\nInterleave, preload duration: 500 ms","torrent":{"xt":"urn:btih:42a26305d73ecda3e432419a28e34860d7b70930","amp;dn":"Magic+Mike","amp;tr":["udp%3A%2F%2Ftracker.openbittorrent.com%3A80","udp%3A%2F%2Fopen.demonii.com%3A1337","udp%3A%2F%2Ftracker.coppersurfer.tk%3A6969","udp%3A%2F%2Fexodus.desync.com%3A6969"],"infoHash":"42a26305d73ecda3e432419a28e34860d7b70930","infoHashBuffer":{"type":"Buffer","data":[66,162,99,5,215,62,205,163,228,50,65,154,40,227,72,96,215,183,9,48]},"announce":[],"urlList":[]}}